<mxfile host="app.diagrams.net" modified="2023-02-09T06:41:53.178Z" agent="5.0 (Windows NT 10.0; Win64; x64) AppleWebKit/537.36 (KHTML, like Gecko) Chrome/96.0.4664.45 Safari/537.36" etag="JJWk2_3dXBDLAf2LCAJX" version="20.8.5" type="github" pages="2">
  <diagram id="anW1jSCkhRQfs5iAtSFn" name="第 2 页">
    <mxGraphModel dx="1434" dy="708" grid="1" gridSize="10" guides="1" tooltips="1" connect="1" arrows="1" fold="1" page="1" pageScale="1" pageWidth="827" pageHeight="1169" math="0" shadow="0">
      <root>
        <mxCell id="0" />
        <mxCell id="1" parent="0" />
        <mxCell id="5mL_y8emDGa73KxQi9rs-11" value="" style="rounded=1;whiteSpace=wrap;html=1;" parent="1" vertex="1">
          <mxGeometry x="40" y="35" width="390" height="105" as="geometry" />
        </mxCell>
        <mxCell id="5mL_y8emDGa73KxQi9rs-38" style="edgeStyle=orthogonalEdgeStyle;rounded=0;orthogonalLoop=1;jettySize=auto;html=1;exitX=0.25;exitY=1;exitDx=0;exitDy=0;exitPerimeter=0;entryX=0.027;entryY=0;entryDx=0;entryDy=0;entryPerimeter=0;" parent="1" source="5mL_y8emDGa73KxQi9rs-5" target="5mL_y8emDGa73KxQi9rs-12" edge="1">
          <mxGeometry relative="1" as="geometry" />
        </mxCell>
        <mxCell id="5mL_y8emDGa73KxQi9rs-5" value="&lt;span style=&quot;color: rgba(0 , 0 , 0 , 0) ; font-family: monospace ; font-size: 0px&quot;&gt;%3CmxGraphModel%3E%3Croot%3E%3CmxCell%20id%3D%220%22%2F%3E%3CmxCell%20id%3D%221%22%20parent%3D%220%22%2F%3E%3CmxCell%20id%3D%222%22%20value%3D%22%22%20style%3D%22shape%3Dtape%3BwhiteSpace%3Dwrap%3Bhtml%3D1%3B%22%20vertex%3D%221%22%20parent%3D%221%22%3E%3CmxGeometry%20x%3D%22360%22%20y%3D%2240%22%20width%3D%22120%22%20height%3D%22100%22%20as%3D%22geometry%22%2F%3E%3C%2FmxCell%3E%3C%2Froot%3E%3C%2FmxGraphModel%3E&lt;/span&gt;" style="shape=tape;whiteSpace=wrap;html=1;" parent="1" vertex="1">
          <mxGeometry x="40" y="40" width="120" height="100" as="geometry" />
        </mxCell>
        <mxCell id="5mL_y8emDGa73KxQi9rs-39" style="edgeStyle=orthogonalEdgeStyle;rounded=0;orthogonalLoop=1;jettySize=auto;html=1;exitX=0.25;exitY=1;exitDx=0;exitDy=0;exitPerimeter=0;entryX=0.145;entryY=0;entryDx=0;entryDy=0;entryPerimeter=0;" parent="1" source="5mL_y8emDGa73KxQi9rs-6" target="5mL_y8emDGa73KxQi9rs-12" edge="1">
          <mxGeometry relative="1" as="geometry" />
        </mxCell>
        <mxCell id="5mL_y8emDGa73KxQi9rs-6" value="" style="shape=tape;whiteSpace=wrap;html=1;" parent="1" vertex="1">
          <mxGeometry x="170" y="35" width="120" height="100" as="geometry" />
        </mxCell>
        <mxCell id="5mL_y8emDGa73KxQi9rs-40" style="edgeStyle=orthogonalEdgeStyle;rounded=0;orthogonalLoop=1;jettySize=auto;html=1;exitX=0.25;exitY=1;exitDx=0;exitDy=0;exitPerimeter=0;entryX=0.258;entryY=-0.025;entryDx=0;entryDy=0;entryPerimeter=0;" parent="1" source="5mL_y8emDGa73KxQi9rs-7" target="5mL_y8emDGa73KxQi9rs-12" edge="1">
          <mxGeometry relative="1" as="geometry" />
        </mxCell>
        <mxCell id="5mL_y8emDGa73KxQi9rs-7" value="" style="shape=tape;whiteSpace=wrap;html=1;" parent="1" vertex="1">
          <mxGeometry x="294" y="37.5" width="120" height="100" as="geometry" />
        </mxCell>
        <mxCell id="5mL_y8emDGa73KxQi9rs-41" style="edgeStyle=orthogonalEdgeStyle;rounded=0;orthogonalLoop=1;jettySize=auto;html=1;exitX=0.5;exitY=1;exitDx=0;exitDy=0;exitPerimeter=0;entryX=0.409;entryY=0;entryDx=0;entryDy=0;entryPerimeter=0;" parent="1" source="5mL_y8emDGa73KxQi9rs-8" target="5mL_y8emDGa73KxQi9rs-12" edge="1">
          <mxGeometry relative="1" as="geometry" />
        </mxCell>
        <mxCell id="5mL_y8emDGa73KxQi9rs-8" value="oracle&lt;br&gt;保价" style="shape=cylinder3;whiteSpace=wrap;html=1;boundedLbl=1;backgroundOutline=1;size=15;" parent="1" vertex="1">
          <mxGeometry x="460" y="40" width="60" height="80" as="geometry" />
        </mxCell>
        <mxCell id="5mL_y8emDGa73KxQi9rs-42" style="edgeStyle=orthogonalEdgeStyle;rounded=0;orthogonalLoop=1;jettySize=auto;html=1;exitX=0.25;exitY=1;exitDx=0;exitDy=0;exitPerimeter=0;" parent="1" source="5mL_y8emDGa73KxQi9rs-9" edge="1">
          <mxGeometry relative="1" as="geometry">
            <mxPoint x="600" y="230" as="targetPoint" />
          </mxGeometry>
        </mxCell>
        <mxCell id="5mL_y8emDGa73KxQi9rs-9" value="" style="shape=tape;whiteSpace=wrap;html=1;" parent="1" vertex="1">
          <mxGeometry x="570" y="40" width="120" height="100" as="geometry" />
        </mxCell>
        <mxCell id="5mL_y8emDGa73KxQi9rs-12" value="flink" style="rounded=1;whiteSpace=wrap;html=1;" parent="1" vertex="1">
          <mxGeometry x="40" y="230" width="1100" height="40" as="geometry" />
        </mxCell>
        <mxCell id="5mL_y8emDGa73KxQi9rs-20" value="大网 kafka1" style="text;html=1;strokeColor=none;fillColor=none;align=center;verticalAlign=middle;whiteSpace=wrap;rounded=0;" parent="1" vertex="1">
          <mxGeometry x="50" y="80" width="60" height="30" as="geometry" />
        </mxCell>
        <mxCell id="5mL_y8emDGa73KxQi9rs-21" value="大网 kafka2" style="text;html=1;strokeColor=none;fillColor=none;align=center;verticalAlign=middle;whiteSpace=wrap;rounded=0;" parent="1" vertex="1">
          <mxGeometry x="180" y="75" width="60" height="30" as="geometry" />
        </mxCell>
        <mxCell id="5mL_y8emDGa73KxQi9rs-22" value="大件 kafka" style="text;html=1;strokeColor=none;fillColor=none;align=center;verticalAlign=middle;whiteSpace=wrap;rounded=0;" parent="1" vertex="1">
          <mxGeometry x="314" y="77.5" width="60" height="30" as="geometry" />
        </mxCell>
        <mxCell id="5mL_y8emDGa73KxQi9rs-23" value="丰网 kafka" style="text;html=1;strokeColor=none;fillColor=none;align=center;verticalAlign=middle;whiteSpace=wrap;rounded=0;" parent="1" vertex="1">
          <mxGeometry x="590" y="80" width="60" height="30" as="geometry" />
        </mxCell>
        <mxCell id="5mL_y8emDGa73KxQi9rs-43" style="edgeStyle=orthogonalEdgeStyle;rounded=0;orthogonalLoop=1;jettySize=auto;html=1;exitX=0.5;exitY=1;exitDx=0;exitDy=0;exitPerimeter=0;entryX=0.673;entryY=-0.025;entryDx=0;entryDy=0;entryPerimeter=0;" parent="1" source="5mL_y8emDGa73KxQi9rs-24" edge="1">
          <mxGeometry relative="1" as="geometry">
            <mxPoint x="740.3000000000002" y="231.5" as="targetPoint" />
          </mxGeometry>
        </mxCell>
        <mxCell id="5mL_y8emDGa73KxQi9rs-24" value="hive 汇率" style="shape=cylinder3;whiteSpace=wrap;html=1;boundedLbl=1;backgroundOutline=1;size=15;" parent="1" vertex="1">
          <mxGeometry x="710" y="42.5" width="60" height="80" as="geometry" />
        </mxCell>
        <mxCell id="5mL_y8emDGa73KxQi9rs-44" style="edgeStyle=orthogonalEdgeStyle;rounded=0;orthogonalLoop=1;jettySize=auto;html=1;exitX=0.5;exitY=1;exitDx=0;exitDy=0;exitPerimeter=0;entryX=0.763;entryY=-0.025;entryDx=0;entryDy=0;entryPerimeter=0;" parent="1" source="5mL_y8emDGa73KxQi9rs-27" edge="1">
          <mxGeometry relative="1" as="geometry">
            <mxPoint x="839.3000000000002" y="231.5" as="targetPoint" />
          </mxGeometry>
        </mxCell>
        <mxCell id="5mL_y8emDGa73KxQi9rs-27" value="hive 部门" style="shape=cylinder3;whiteSpace=wrap;html=1;boundedLbl=1;backgroundOutline=1;size=15;" parent="1" vertex="1">
          <mxGeometry x="810" y="40" width="60" height="80" as="geometry" />
        </mxCell>
        <mxCell id="5mL_y8emDGa73KxQi9rs-45" style="edgeStyle=orthogonalEdgeStyle;rounded=0;orthogonalLoop=1;jettySize=auto;html=1;exitX=0.25;exitY=1;exitDx=0;exitDy=0;exitPerimeter=0;entryX=0.873;entryY=-0.05;entryDx=0;entryDy=0;entryPerimeter=0;" parent="1" source="5mL_y8emDGa73KxQi9rs-37" target="5mL_y8emDGa73KxQi9rs-12" edge="1">
          <mxGeometry relative="1" as="geometry">
            <mxPoint x="999.1999999999998" y="225" as="targetPoint" />
            <Array as="points" />
          </mxGeometry>
        </mxCell>
        <mxCell id="5mL_y8emDGa73KxQi9rs-37" value="维表缓冲数据集" style="shape=tape;whiteSpace=wrap;html=1;" parent="1" vertex="1">
          <mxGeometry x="970" y="27.5" width="120" height="100" as="geometry" />
        </mxCell>
        <mxCell id="5mL_y8emDGa73KxQi9rs-59" style="edgeStyle=orthogonalEdgeStyle;rounded=0;orthogonalLoop=1;jettySize=auto;html=1;exitX=1;exitY=0.5;exitDx=0;exitDy=0;entryX=0;entryY=0.5;entryDx=0;entryDy=0;" parent="1" source="5mL_y8emDGa73KxQi9rs-46" target="5mL_y8emDGa73KxQi9rs-57" edge="1">
          <mxGeometry relative="1" as="geometry">
            <mxPoint x="461" y="390" as="targetPoint" />
          </mxGeometry>
        </mxCell>
        <mxCell id="5mL_y8emDGa73KxQi9rs-46" value="维表 join&lt;br&gt;汇率计算/部门补充" style="rounded=1;whiteSpace=wrap;html=1;" parent="1" vertex="1">
          <mxGeometry x="191" y="309" width="120" height="60" as="geometry" />
        </mxCell>
        <mxCell id="5mL_y8emDGa73KxQi9rs-53" style="edgeStyle=orthogonalEdgeStyle;rounded=0;orthogonalLoop=1;jettySize=auto;html=1;exitX=0;exitY=0.5;exitDx=0;exitDy=0;exitPerimeter=0;" parent="1" source="5mL_y8emDGa73KxQi9rs-47" target="5mL_y8emDGa73KxQi9rs-46" edge="1">
          <mxGeometry relative="1" as="geometry" />
        </mxCell>
        <mxCell id="5mL_y8emDGa73KxQi9rs-47" value="" style="strokeWidth=2;html=1;shape=mxgraph.flowchart.annotation_2;align=left;labelPosition=right;pointerEvents=1;rotation=-180;" parent="1" vertex="1">
          <mxGeometry x="112" y="294" width="10" height="90" as="geometry" />
        </mxCell>
        <mxCell id="5mL_y8emDGa73KxQi9rs-48" value="大网 kafka1" style="text;html=1;strokeColor=none;fillColor=none;align=center;verticalAlign=middle;whiteSpace=wrap;rounded=0;" parent="1" vertex="1">
          <mxGeometry x="41" y="280" width="70" height="30" as="geometry" />
        </mxCell>
        <mxCell id="5mL_y8emDGa73KxQi9rs-50" value="大网 kafka2" style="text;html=1;strokeColor=none;fillColor=none;align=center;verticalAlign=middle;whiteSpace=wrap;rounded=0;" parent="1" vertex="1">
          <mxGeometry x="41" y="309" width="70" height="30" as="geometry" />
        </mxCell>
        <mxCell id="5mL_y8emDGa73KxQi9rs-51" value="大网 kafka3" style="text;html=1;strokeColor=none;fillColor=none;align=center;verticalAlign=middle;whiteSpace=wrap;rounded=0;" parent="1" vertex="1">
          <mxGeometry x="41" y="336" width="70" height="30" as="geometry" />
        </mxCell>
        <mxCell id="5mL_y8emDGa73KxQi9rs-52" value="丰网 kafka" style="text;html=1;strokeColor=none;fillColor=none;align=center;verticalAlign=middle;whiteSpace=wrap;rounded=0;" parent="1" vertex="1">
          <mxGeometry x="40" y="367" width="70" height="30" as="geometry" />
        </mxCell>
        <mxCell id="5mL_y8emDGa73KxQi9rs-56" style="edgeStyle=orthogonalEdgeStyle;rounded=0;orthogonalLoop=1;jettySize=auto;html=1;exitX=1;exitY=0.5;exitDx=0;exitDy=0;" parent="1" source="5mL_y8emDGa73KxQi9rs-54" target="5mL_y8emDGa73KxQi9rs-55" edge="1">
          <mxGeometry relative="1" as="geometry" />
        </mxCell>
        <mxCell id="5mL_y8emDGa73KxQi9rs-54" value="&#xa;&#xa;&lt;span style=&quot;color: rgb(0, 0, 0); font-family: helvetica; font-size: 12px; font-style: normal; font-weight: 400; letter-spacing: normal; text-align: center; text-indent: 0px; text-transform: none; word-spacing: 0px; background-color: rgb(248, 249, 250); display: inline; float: none;&quot;&gt;oracle&lt;/span&gt;&lt;br style=&quot;color: rgb(0, 0, 0); font-family: helvetica; font-size: 12px; font-style: normal; font-weight: 400; letter-spacing: normal; text-align: center; text-indent: 0px; text-transform: none; word-spacing: 0px; background-color: rgb(248, 249, 250);&quot;&gt;&lt;span style=&quot;color: rgb(0, 0, 0); font-family: helvetica; font-size: 12px; font-style: normal; font-weight: 400; letter-spacing: normal; text-align: center; text-indent: 0px; text-transform: none; word-spacing: 0px; background-color: rgb(248, 249, 250); display: inline; float: none;&quot;&gt;保价&lt;/span&gt;&#xa;&#xa;" style="text;html=1;strokeColor=none;fillColor=none;align=center;verticalAlign=middle;whiteSpace=wrap;rounded=0;" parent="1" vertex="1">
          <mxGeometry x="46" y="430" width="60" height="30" as="geometry" />
        </mxCell>
        <mxCell id="5mL_y8emDGa73KxQi9rs-58" style="edgeStyle=orthogonalEdgeStyle;rounded=0;orthogonalLoop=1;jettySize=auto;html=1;exitX=1;exitY=0.5;exitDx=0;exitDy=0;" parent="1" source="5mL_y8emDGa73KxQi9rs-55" target="5mL_y8emDGa73KxQi9rs-57" edge="1">
          <mxGeometry relative="1" as="geometry" />
        </mxCell>
        <mxCell id="5mL_y8emDGa73KxQi9rs-60" value="union" style="edgeLabel;html=1;align=center;verticalAlign=middle;resizable=0;points=[];" parent="5mL_y8emDGa73KxQi9rs-58" vertex="1" connectable="0">
          <mxGeometry x="0.3895" y="1" relative="1" as="geometry">
            <mxPoint as="offset" />
          </mxGeometry>
        </mxCell>
        <mxCell id="5mL_y8emDGa73KxQi9rs-55" value="字段补齐" style="rounded=1;whiteSpace=wrap;html=1;" parent="1" vertex="1">
          <mxGeometry x="191" y="415" width="120" height="60" as="geometry" />
        </mxCell>
        <mxCell id="5mL_y8emDGa73KxQi9rs-62" style="edgeStyle=orthogonalEdgeStyle;rounded=0;orthogonalLoop=1;jettySize=auto;html=1;exitX=1;exitY=0.5;exitDx=0;exitDy=0;" parent="1" source="5mL_y8emDGa73KxQi9rs-57" target="5mL_y8emDGa73KxQi9rs-61" edge="1">
          <mxGeometry relative="1" as="geometry" />
        </mxCell>
        <mxCell id="5mL_y8emDGa73KxQi9rs-63" value="运单号 keyby" style="edgeLabel;html=1;align=center;verticalAlign=middle;resizable=0;points=[];" parent="5mL_y8emDGa73KxQi9rs-62" vertex="1" connectable="0">
          <mxGeometry x="-0.2844" relative="1" as="geometry">
            <mxPoint as="offset" />
          </mxGeometry>
        </mxCell>
        <mxCell id="5mL_y8emDGa73KxQi9rs-57" value="运单+保价数据" style="rounded=1;whiteSpace=wrap;html=1;" parent="1" vertex="1">
          <mxGeometry x="445.5" y="415" width="120" height="60" as="geometry" />
        </mxCell>
        <mxCell id="5mL_y8emDGa73KxQi9rs-77" style="edgeStyle=orthogonalEdgeStyle;rounded=0;orthogonalLoop=1;jettySize=auto;html=1;exitX=1;exitY=0.5;exitDx=0;exitDy=0;entryX=0.008;entryY=0.57;entryDx=0;entryDy=0;entryPerimeter=0;" parent="1" source="5mL_y8emDGa73KxQi9rs-61" target="5mL_y8emDGa73KxQi9rs-73" edge="1">
          <mxGeometry relative="1" as="geometry" />
        </mxCell>
        <mxCell id="5mL_y8emDGa73KxQi9rs-78" style="edgeStyle=orthogonalEdgeStyle;rounded=0;orthogonalLoop=1;jettySize=auto;html=1;exitX=1;exitY=0.5;exitDx=0;exitDy=0;entryX=0;entryY=0.5;entryDx=0;entryDy=0;entryPerimeter=0;" parent="1" source="5mL_y8emDGa73KxQi9rs-61" target="5mL_y8emDGa73KxQi9rs-74" edge="1">
          <mxGeometry relative="1" as="geometry" />
        </mxCell>
        <mxCell id="5mL_y8emDGa73KxQi9rs-79" value="sink kafka" style="edgeLabel;html=1;align=center;verticalAlign=middle;resizable=0;points=[];" parent="5mL_y8emDGa73KxQi9rs-78" vertex="1" connectable="0">
          <mxGeometry x="-0.4076" y="1" relative="1" as="geometry">
            <mxPoint x="1" as="offset" />
          </mxGeometry>
        </mxCell>
        <mxCell id="5mL_y8emDGa73KxQi9rs-61" value="process" style="rounded=1;whiteSpace=wrap;html=1;" parent="1" vertex="1">
          <mxGeometry x="674.5" y="415" width="120" height="60" as="geometry" />
        </mxCell>
        <mxCell id="5mL_y8emDGa73KxQi9rs-67" style="edgeStyle=orthogonalEdgeStyle;rounded=0;orthogonalLoop=1;jettySize=auto;html=1;" parent="1" source="5mL_y8emDGa73KxQi9rs-64" target="5mL_y8emDGa73KxQi9rs-66" edge="1">
          <mxGeometry relative="1" as="geometry" />
        </mxCell>
        <mxCell id="5mL_y8emDGa73KxQi9rs-64" value="&lt;span&gt;维表缓冲数据集&lt;/span&gt;" style="text;html=1;align=center;verticalAlign=middle;resizable=0;points=[];autosize=1;strokeColor=none;fillColor=none;" parent="1" vertex="1">
          <mxGeometry x="22" y="530" width="100" height="20" as="geometry" />
        </mxCell>
        <mxCell id="5mL_y8emDGa73KxQi9rs-68" style="edgeStyle=orthogonalEdgeStyle;rounded=0;orthogonalLoop=1;jettySize=auto;html=1;exitX=1;exitY=0.5;exitDx=0;exitDy=0;entryX=0;entryY=0.5;entryDx=0;entryDy=0;" parent="1" source="5mL_y8emDGa73KxQi9rs-66" target="5mL_y8emDGa73KxQi9rs-57" edge="1">
          <mxGeometry relative="1" as="geometry" />
        </mxCell>
        <mxCell id="5mL_y8emDGa73KxQi9rs-66" value="kafka source" style="rounded=1;whiteSpace=wrap;html=1;" parent="1" vertex="1">
          <mxGeometry x="191" y="510" width="120" height="60" as="geometry" />
        </mxCell>
        <mxCell id="5mL_y8emDGa73KxQi9rs-73" value="deltaStream kafka" style="shape=tape;whiteSpace=wrap;html=1;" parent="1" vertex="1">
          <mxGeometry x="930" y="320" width="120" height="100" as="geometry" />
        </mxCell>
        <mxCell id="5mL_y8emDGa73KxQi9rs-74" value="&lt;span&gt;维表缓冲数据集&lt;/span&gt;" style="shape=tape;whiteSpace=wrap;html=1;" parent="1" vertex="1">
          <mxGeometry x="930" y="457" width="120" height="100" as="geometry" />
        </mxCell>
        <mxCell id="5mL_y8emDGa73KxQi9rs-76" value="&lt;h1&gt;借助 flink state 实现保价关联，蜂网数据对齐等逻辑&lt;/h1&gt;&lt;p&gt;1、保价数据先到,运单数据后到&lt;/p&gt;&lt;p&gt;&amp;nbsp; &amp;nbsp;1.1、先到的保价数据 存 state&lt;/p&gt;&lt;p&gt;&amp;nbsp; &amp;nbsp;1.2、后到运单数据是否为丰网(根据产品编码进行判断)&lt;/p&gt;&lt;p&gt;&lt;span&gt; &lt;/span&gt;&amp;nbsp; &amp;nbsp; 1.2.1、如果不是丰网&lt;/p&gt;&lt;p&gt;&lt;span&gt;  &lt;/span&gt;&amp;nbsp; &amp;nbsp; 运单数据关联 state 补充保价信息再下发,同时将运单分区存入 state&lt;/p&gt;&lt;p&gt;&lt;span&gt;  &lt;/span&gt;1.2.1、如果是丰网，则判断数据来源&lt;/p&gt;&lt;p&gt;&lt;span&gt;  &lt;/span&gt;&amp;nbsp; &amp;nbsp;如果来源是 oracle：则将 分区信息 存入 state&amp;nbsp;&lt;/p&gt;&lt;p&gt;&lt;span&gt;  &lt;/span&gt;&amp;nbsp; &amp;nbsp;如果来源是 kafka 则判断 state 是否有分区&lt;/p&gt;&lt;p&gt;&lt;span&gt;  &lt;/span&gt;&amp;nbsp; &amp;nbsp; &amp;nbsp; &amp;nbsp;如果有分区则修正分区关联保价下发&lt;/p&gt;&lt;p&gt;&lt;span&gt;   &lt;/span&gt;&amp;nbsp; &amp;nbsp;如果没有分区则发送回 kafka 暂时不处理&lt;/p&gt;&lt;p&gt;2、&lt;span&gt; &lt;/span&gt;运单数据先到，保价数据后到&lt;/p&gt;&lt;p&gt;&amp;nbsp; &amp;nbsp; 2.1、同 1.2 与 1.2 不同的是没有保价数据关联&lt;/p&gt;&lt;p&gt;&lt;span&gt; &lt;/span&gt;2.2、后到的保价数据，获取分区后进行下发，下游进行保价字段的局部更新&lt;/p&gt;&lt;p&gt;&lt;span&gt; &lt;/span&gt;&lt;/p&gt;&lt;p&gt;两个信息要保存 state&lt;/p&gt;&lt;p&gt;分区：&lt;/p&gt;&lt;p&gt;&lt;span&gt; &lt;/span&gt;1、oracle 丰网的 分区:&amp;nbsp; 目的为了纠正大网 kafka 丰网数据，这里要保留&amp;nbsp; 60 天&lt;/p&gt;&lt;p&gt;&lt;span&gt; &lt;/span&gt;2、大网 kafka 非 丰网的 分区： 目的为了保证保价数据能够进行局部更新&amp;nbsp; &amp;nbsp;保留周期有运单和保价数据最大时间间隔决定&lt;span&gt; &lt;/span&gt;&lt;/p&gt;&lt;p&gt;保价：&lt;/p&gt;&lt;p&gt;&amp;nbsp; &amp;nbsp; 目的是为了保证保价数据先到时,等运单数据的时候数据有地方获取保价信息（如果也回发kafka就没必要存了）&lt;/p&gt;&lt;p&gt;&lt;span&gt; &lt;/span&gt;保留周期&amp;nbsp; 180 天&lt;/p&gt;&lt;p&gt;&lt;span&gt; &lt;/span&gt;&lt;/p&gt;" style="text;html=1;strokeColor=none;fillColor=none;spacing=5;spacingTop=-20;whiteSpace=wrap;overflow=hidden;rounded=0;" parent="1" vertex="1">
          <mxGeometry x="1150" y="35" width="735" height="600" as="geometry" />
        </mxCell>
        <mxCell id="5mL_y8emDGa73KxQi9rs-80" value="" style="shape=flexArrow;endArrow=classic;html=1;rounded=0;" parent="1" edge="1">
          <mxGeometry width="50" height="50" relative="1" as="geometry">
            <mxPoint x="580" y="560" as="sourcePoint" />
            <mxPoint x="580" y="640" as="targetPoint" />
          </mxGeometry>
        </mxCell>
        <mxCell id="5mL_y8emDGa73KxQi9rs-88" style="edgeStyle=orthogonalEdgeStyle;rounded=0;orthogonalLoop=1;jettySize=auto;html=1;exitX=1;exitY=0.5;exitDx=0;exitDy=0;exitPerimeter=0;fontColor=#FF6666;" parent="1" source="5mL_y8emDGa73KxQi9rs-81" target="5mL_y8emDGa73KxQi9rs-87" edge="1">
          <mxGeometry relative="1" as="geometry" />
        </mxCell>
        <mxCell id="5mL_y8emDGa73KxQi9rs-81" value="deltaStream kafka" style="shape=tape;whiteSpace=wrap;html=1;" parent="1" vertex="1">
          <mxGeometry x="41" y="730" width="120" height="100" as="geometry" />
        </mxCell>
        <mxCell id="5mL_y8emDGa73KxQi9rs-82" value="只会流入两种数据&lt;br&gt;&lt;div&gt;&lt;span&gt;1、运单数据, 运单数据不再区分大小丰网&lt;/span&gt;&lt;/div&gt;2、保价数据" style="text;html=1;strokeColor=none;fillColor=none;align=left;verticalAlign=middle;whiteSpace=wrap;rounded=0;" parent="1" vertex="1">
          <mxGeometry x="597" y="570" width="230" height="60" as="geometry" />
        </mxCell>
        <mxCell id="5mL_y8emDGa73KxQi9rs-83" style="edgeStyle=orthogonalEdgeStyle;rounded=0;orthogonalLoop=1;jettySize=auto;html=1;exitX=0.5;exitY=1;exitDx=0;exitDy=0;exitPerimeter=0;entryX=0.763;entryY=-0.025;entryDx=0;entryDy=0;entryPerimeter=0;" parent="1" source="5mL_y8emDGa73KxQi9rs-84" edge="1">
          <mxGeometry relative="1" as="geometry">
            <mxPoint x="929.3000000000002" y="229" as="targetPoint" />
          </mxGeometry>
        </mxCell>
        <mxCell id="5mL_y8emDGa73KxQi9rs-84" value="hive小网" style="shape=cylinder3;whiteSpace=wrap;html=1;boundedLbl=1;backgroundOutline=1;size=15;" parent="1" vertex="1">
          <mxGeometry x="900" y="37.5" width="60" height="80" as="geometry" />
        </mxCell>
        <mxCell id="5mL_y8emDGa73KxQi9rs-85" value="spark detlaStramer" style="rounded=1;whiteSpace=wrap;html=1;" parent="1" vertex="1">
          <mxGeometry x="22" y="650" width="1100" height="40" as="geometry" />
        </mxCell>
        <mxCell id="5mL_y8emDGa73KxQi9rs-86" value="这里发送的时候要按照运单号去发，确保一个运单在一个 kafka 分区，避免下游消费乱序" style="text;html=1;strokeColor=none;fillColor=none;align=left;verticalAlign=middle;whiteSpace=wrap;rounded=0;fontColor=#FF6666;" parent="1" vertex="1">
          <mxGeometry x="700" y="330" width="260" height="31" as="geometry" />
        </mxCell>
        <mxCell id="5mL_y8emDGa73KxQi9rs-90" style="edgeStyle=orthogonalEdgeStyle;rounded=0;orthogonalLoop=1;jettySize=auto;html=1;exitX=1;exitY=0.5;exitDx=0;exitDy=0;entryX=0;entryY=0.5;entryDx=0;entryDy=0;fontColor=#000000;" parent="1" source="5mL_y8emDGa73KxQi9rs-87" target="5mL_y8emDGa73KxQi9rs-89" edge="1">
          <mxGeometry relative="1" as="geometry" />
        </mxCell>
        <mxCell id="5mL_y8emDGa73KxQi9rs-87" value="&lt;span style=&quot;color: rgb(0 , 0 , 0)&quot;&gt;spark detlaStramer&lt;/span&gt;" style="rounded=1;whiteSpace=wrap;html=1;fontColor=#FF6666;" parent="1" vertex="1">
          <mxGeometry x="251" y="750" width="120" height="60" as="geometry" />
        </mxCell>
        <mxCell id="5mL_y8emDGa73KxQi9rs-89" value="hudi" style="rounded=1;whiteSpace=wrap;html=1;fontColor=#000000;" parent="1" vertex="1">
          <mxGeometry x="491" y="750" width="120" height="60" as="geometry" />
        </mxCell>
        <mxCell id="5mL_y8emDGa73KxQi9rs-93" value="" style="shape=table;html=1;whiteSpace=wrap;startSize=0;container=1;collapsible=0;childLayout=tableLayout;fontColor=#000000;" parent="1" vertex="1">
          <mxGeometry x="770" y="720" width="240" height="280" as="geometry" />
        </mxCell>
        <mxCell id="5mL_y8emDGa73KxQi9rs-123" style="shape=tableRow;horizontal=0;startSize=0;swimlaneHead=0;swimlaneBody=0;top=0;left=0;bottom=0;right=0;collapsible=0;dropTarget=0;fillColor=none;points=[[0,0.5],[1,0.5]];portConstraint=eastwest;fontColor=#000000;" parent="5mL_y8emDGa73KxQi9rs-93" vertex="1">
          <mxGeometry width="240" height="40" as="geometry" />
        </mxCell>
        <mxCell id="5mL_y8emDGa73KxQi9rs-124" style="shape=partialRectangle;html=1;whiteSpace=wrap;connectable=0;fillColor=none;top=0;left=0;bottom=0;right=0;overflow=hidden;fontColor=#000000;" parent="5mL_y8emDGa73KxQi9rs-123" vertex="1">
          <mxGeometry width="60" height="40" as="geometry">
            <mxRectangle width="60" height="40" as="alternateBounds" />
          </mxGeometry>
        </mxCell>
        <mxCell id="5mL_y8emDGa73KxQi9rs-125" value="1" style="shape=partialRectangle;html=1;whiteSpace=wrap;connectable=0;fillColor=none;top=0;left=0;bottom=0;right=0;overflow=hidden;fontColor=#000000;" parent="5mL_y8emDGa73KxQi9rs-123" vertex="1">
          <mxGeometry x="60" width="60" height="40" as="geometry">
            <mxRectangle width="60" height="40" as="alternateBounds" />
          </mxGeometry>
        </mxCell>
        <mxCell id="5mL_y8emDGa73KxQi9rs-126" value="2" style="shape=partialRectangle;html=1;whiteSpace=wrap;connectable=0;fillColor=none;top=0;left=0;bottom=0;right=0;overflow=hidden;fontColor=#000000;" parent="5mL_y8emDGa73KxQi9rs-123" vertex="1">
          <mxGeometry x="120" width="60" height="40" as="geometry">
            <mxRectangle width="60" height="40" as="alternateBounds" />
          </mxGeometry>
        </mxCell>
        <mxCell id="5mL_y8emDGa73KxQi9rs-127" value="3" style="shape=partialRectangle;html=1;whiteSpace=wrap;connectable=0;fillColor=none;top=0;left=0;bottom=0;right=0;overflow=hidden;fontColor=#000000;" parent="5mL_y8emDGa73KxQi9rs-123" vertex="1">
          <mxGeometry x="180" width="60" height="40" as="geometry">
            <mxRectangle width="60" height="40" as="alternateBounds" />
          </mxGeometry>
        </mxCell>
        <mxCell id="5mL_y8emDGa73KxQi9rs-94" value="" style="shape=tableRow;horizontal=0;startSize=0;swimlaneHead=0;swimlaneBody=0;top=0;left=0;bottom=0;right=0;collapsible=0;dropTarget=0;fillColor=none;points=[[0,0.5],[1,0.5]];portConstraint=eastwest;fontColor=#000000;" parent="5mL_y8emDGa73KxQi9rs-93" vertex="1">
          <mxGeometry y="40" width="240" height="40" as="geometry" />
        </mxCell>
        <mxCell id="5mL_y8emDGa73KxQi9rs-115" value="窗口1" style="shape=partialRectangle;html=1;whiteSpace=wrap;connectable=0;fillColor=none;top=0;left=0;bottom=0;right=0;overflow=hidden;fontColor=#000000;" parent="5mL_y8emDGa73KxQi9rs-94" vertex="1">
          <mxGeometry width="60" height="40" as="geometry">
            <mxRectangle width="60" height="40" as="alternateBounds" />
          </mxGeometry>
        </mxCell>
        <mxCell id="5mL_y8emDGa73KxQi9rs-95" value="运单" style="shape=partialRectangle;html=1;whiteSpace=wrap;connectable=0;fillColor=none;top=0;left=0;bottom=0;right=0;overflow=hidden;fontColor=#000000;" parent="5mL_y8emDGa73KxQi9rs-94" vertex="1">
          <mxGeometry x="60" width="60" height="40" as="geometry">
            <mxRectangle width="60" height="40" as="alternateBounds" />
          </mxGeometry>
        </mxCell>
        <mxCell id="5mL_y8emDGa73KxQi9rs-96" value="保价" style="shape=partialRectangle;html=1;whiteSpace=wrap;connectable=0;fillColor=none;top=0;left=0;bottom=0;right=0;overflow=hidden;fontColor=#000000;" parent="5mL_y8emDGa73KxQi9rs-94" vertex="1">
          <mxGeometry x="120" width="60" height="40" as="geometry">
            <mxRectangle width="60" height="40" as="alternateBounds" />
          </mxGeometry>
        </mxCell>
        <mxCell id="5mL_y8emDGa73KxQi9rs-97" value="运单" style="shape=partialRectangle;html=1;whiteSpace=wrap;connectable=0;fillColor=none;top=0;left=0;bottom=0;right=0;overflow=hidden;fontColor=#000000;" parent="5mL_y8emDGa73KxQi9rs-94" vertex="1">
          <mxGeometry x="180" width="60" height="40" as="geometry">
            <mxRectangle width="60" height="40" as="alternateBounds" />
          </mxGeometry>
        </mxCell>
        <mxCell id="5mL_y8emDGa73KxQi9rs-98" value="" style="shape=tableRow;horizontal=0;startSize=0;swimlaneHead=0;swimlaneBody=0;top=0;left=0;bottom=0;right=0;collapsible=0;dropTarget=0;fillColor=none;points=[[0,0.5],[1,0.5]];portConstraint=eastwest;fontColor=#000000;" parent="5mL_y8emDGa73KxQi9rs-93" vertex="1">
          <mxGeometry y="80" width="240" height="40" as="geometry" />
        </mxCell>
        <mxCell id="5mL_y8emDGa73KxQi9rs-116" value="窗口2" style="shape=partialRectangle;html=1;whiteSpace=wrap;connectable=0;fillColor=none;top=0;left=0;bottom=0;right=0;overflow=hidden;fontColor=#000000;" parent="5mL_y8emDGa73KxQi9rs-98" vertex="1">
          <mxGeometry width="60" height="40" as="geometry">
            <mxRectangle width="60" height="40" as="alternateBounds" />
          </mxGeometry>
        </mxCell>
        <mxCell id="5mL_y8emDGa73KxQi9rs-99" value="运单" style="shape=partialRectangle;html=1;whiteSpace=wrap;connectable=0;fillColor=none;top=0;left=0;bottom=0;right=0;overflow=hidden;fontColor=#000000;" parent="5mL_y8emDGa73KxQi9rs-98" vertex="1">
          <mxGeometry x="60" width="60" height="40" as="geometry">
            <mxRectangle width="60" height="40" as="alternateBounds" />
          </mxGeometry>
        </mxCell>
        <mxCell id="5mL_y8emDGa73KxQi9rs-100" value="保价" style="shape=partialRectangle;html=1;whiteSpace=wrap;connectable=0;fillColor=none;top=0;left=0;bottom=0;right=0;overflow=hidden;fontColor=#000000;" parent="5mL_y8emDGa73KxQi9rs-98" vertex="1">
          <mxGeometry x="120" width="60" height="40" as="geometry">
            <mxRectangle width="60" height="40" as="alternateBounds" />
          </mxGeometry>
        </mxCell>
        <mxCell id="5mL_y8emDGa73KxQi9rs-101" value="保价" style="shape=partialRectangle;html=1;whiteSpace=wrap;connectable=0;fillColor=none;top=0;left=0;bottom=0;right=0;overflow=hidden;fontColor=#000000;" parent="5mL_y8emDGa73KxQi9rs-98" vertex="1">
          <mxGeometry x="180" width="60" height="40" as="geometry">
            <mxRectangle width="60" height="40" as="alternateBounds" />
          </mxGeometry>
        </mxCell>
        <mxCell id="5mL_y8emDGa73KxQi9rs-102" value="" style="shape=tableRow;horizontal=0;startSize=0;swimlaneHead=0;swimlaneBody=0;top=0;left=0;bottom=0;right=0;collapsible=0;dropTarget=0;fillColor=none;points=[[0,0.5],[1,0.5]];portConstraint=eastwest;fontColor=#000000;" parent="5mL_y8emDGa73KxQi9rs-93" vertex="1">
          <mxGeometry y="120" width="240" height="40" as="geometry" />
        </mxCell>
        <mxCell id="5mL_y8emDGa73KxQi9rs-117" value="窗口3" style="shape=partialRectangle;html=1;whiteSpace=wrap;connectable=0;fillColor=none;top=0;left=0;bottom=0;right=0;overflow=hidden;fontColor=#000000;" parent="5mL_y8emDGa73KxQi9rs-102" vertex="1">
          <mxGeometry width="60" height="40" as="geometry">
            <mxRectangle width="60" height="40" as="alternateBounds" />
          </mxGeometry>
        </mxCell>
        <mxCell id="5mL_y8emDGa73KxQi9rs-103" value="运单" style="shape=partialRectangle;html=1;whiteSpace=wrap;connectable=0;fillColor=none;top=0;left=0;bottom=0;right=0;overflow=hidden;fontColor=#000000;" parent="5mL_y8emDGa73KxQi9rs-102" vertex="1">
          <mxGeometry x="60" width="60" height="40" as="geometry">
            <mxRectangle width="60" height="40" as="alternateBounds" />
          </mxGeometry>
        </mxCell>
        <mxCell id="5mL_y8emDGa73KxQi9rs-104" value="运单" style="shape=partialRectangle;html=1;whiteSpace=wrap;connectable=0;fillColor=none;top=0;left=0;bottom=0;right=0;overflow=hidden;fontColor=#000000;" parent="5mL_y8emDGa73KxQi9rs-102" vertex="1">
          <mxGeometry x="120" width="60" height="40" as="geometry">
            <mxRectangle width="60" height="40" as="alternateBounds" />
          </mxGeometry>
        </mxCell>
        <mxCell id="5mL_y8emDGa73KxQi9rs-105" value="运单" style="shape=partialRectangle;html=1;whiteSpace=wrap;connectable=0;fillColor=none;top=0;left=0;bottom=0;right=0;overflow=hidden;pointerEvents=1;fontColor=#000000;" parent="5mL_y8emDGa73KxQi9rs-102" vertex="1">
          <mxGeometry x="180" width="60" height="40" as="geometry">
            <mxRectangle width="60" height="40" as="alternateBounds" />
          </mxGeometry>
        </mxCell>
        <mxCell id="5mL_y8emDGa73KxQi9rs-118" style="shape=tableRow;horizontal=0;startSize=0;swimlaneHead=0;swimlaneBody=0;top=0;left=0;bottom=0;right=0;collapsible=0;dropTarget=0;fillColor=none;points=[[0,0.5],[1,0.5]];portConstraint=eastwest;fontColor=#000000;" parent="5mL_y8emDGa73KxQi9rs-93" vertex="1">
          <mxGeometry y="160" width="240" height="40" as="geometry" />
        </mxCell>
        <mxCell id="5mL_y8emDGa73KxQi9rs-119" value="窗口4" style="shape=partialRectangle;html=1;whiteSpace=wrap;connectable=0;fillColor=none;top=0;left=0;bottom=0;right=0;overflow=hidden;fontColor=#000000;" parent="5mL_y8emDGa73KxQi9rs-118" vertex="1">
          <mxGeometry width="60" height="40" as="geometry">
            <mxRectangle width="60" height="40" as="alternateBounds" />
          </mxGeometry>
        </mxCell>
        <mxCell id="5mL_y8emDGa73KxQi9rs-120" value="&lt;span&gt;运单&lt;/span&gt;" style="shape=partialRectangle;html=1;whiteSpace=wrap;connectable=0;fillColor=none;top=0;left=0;bottom=0;right=0;overflow=hidden;fontColor=#000000;" parent="5mL_y8emDGa73KxQi9rs-118" vertex="1">
          <mxGeometry x="60" width="60" height="40" as="geometry">
            <mxRectangle width="60" height="40" as="alternateBounds" />
          </mxGeometry>
        </mxCell>
        <mxCell id="5mL_y8emDGa73KxQi9rs-121" value="运单" style="shape=partialRectangle;html=1;whiteSpace=wrap;connectable=0;fillColor=none;top=0;left=0;bottom=0;right=0;overflow=hidden;fontColor=#000000;" parent="5mL_y8emDGa73KxQi9rs-118" vertex="1">
          <mxGeometry x="120" width="60" height="40" as="geometry">
            <mxRectangle width="60" height="40" as="alternateBounds" />
          </mxGeometry>
        </mxCell>
        <mxCell id="5mL_y8emDGa73KxQi9rs-122" value="保价" style="shape=partialRectangle;html=1;whiteSpace=wrap;connectable=0;fillColor=none;top=0;left=0;bottom=0;right=0;overflow=hidden;pointerEvents=1;fontColor=#000000;" parent="5mL_y8emDGa73KxQi9rs-118" vertex="1">
          <mxGeometry x="180" width="60" height="40" as="geometry">
            <mxRectangle width="60" height="40" as="alternateBounds" />
          </mxGeometry>
        </mxCell>
        <mxCell id="5mL_y8emDGa73KxQi9rs-132" style="shape=tableRow;horizontal=0;startSize=0;swimlaneHead=0;swimlaneBody=0;top=0;left=0;bottom=0;right=0;collapsible=0;dropTarget=0;fillColor=none;points=[[0,0.5],[1,0.5]];portConstraint=eastwest;fontColor=#000000;" parent="5mL_y8emDGa73KxQi9rs-93" vertex="1">
          <mxGeometry y="200" width="240" height="40" as="geometry" />
        </mxCell>
        <mxCell id="5mL_y8emDGa73KxQi9rs-133" value="窗口5" style="shape=partialRectangle;html=1;whiteSpace=wrap;connectable=0;fillColor=none;top=0;left=0;bottom=0;right=0;overflow=hidden;fontColor=#000000;" parent="5mL_y8emDGa73KxQi9rs-132" vertex="1">
          <mxGeometry width="60" height="40" as="geometry">
            <mxRectangle width="60" height="40" as="alternateBounds" />
          </mxGeometry>
        </mxCell>
        <mxCell id="5mL_y8emDGa73KxQi9rs-134" value="&lt;span style=&quot;color: rgba(0 , 0 , 0 , 0) ; font-family: monospace ; font-size: 0px&quot;&gt;%3CmxGraphModel%3E%3Croot%3E%3CmxCell%20id%3D%220%22%2F%3E%3CmxCell%20id%3D%221%22%20parent%3D%220%22%2F%3E%3CmxCell%20id%3D%222%22%20value%3D%22%E4%BF%9D%E4%BB%B7%22%20style%3D%22shape%3DpartialRectangle%3Bhtml%3D1%3BwhiteSpace%3Dwrap%3Bconnectable%3D0%3BfillColor%3Dnone%3Btop%3D0%3Bleft%3D0%3Bbottom%3D0%3Bright%3D0%3Boverflow%3Dhidden%3BfontColor%3D%23000000%3B%22%20vertex%3D%221%22%20parent%3D%221%22%3E%3CmxGeometry%20x%3D%22830%22%20y%3D%22920%22%20width%3D%2260%22%20height%3D%2240%22%20as%3D%22geometry%22%3E%3CmxRectangle%20width%3D%2260%22%20height%3D%2240%22%20as%3D%22alternateBounds%22%2F%3E%3C%2FmxGeometry%3E%3C%2FmxCell%3E%3C%2Froot%3E%3C%2FmxGraphModel%3E&lt;/span&gt;" style="shape=partialRectangle;html=1;whiteSpace=wrap;connectable=0;fillColor=none;top=0;left=0;bottom=0;right=0;overflow=hidden;fontColor=#000000;" parent="5mL_y8emDGa73KxQi9rs-132" vertex="1">
          <mxGeometry x="60" width="60" height="40" as="geometry">
            <mxRectangle width="60" height="40" as="alternateBounds" />
          </mxGeometry>
        </mxCell>
        <mxCell id="5mL_y8emDGa73KxQi9rs-135" value="" style="shape=partialRectangle;html=1;whiteSpace=wrap;connectable=0;fillColor=none;top=0;left=0;bottom=0;right=0;overflow=hidden;fontColor=#000000;" parent="5mL_y8emDGa73KxQi9rs-132" vertex="1">
          <mxGeometry x="120" width="60" height="40" as="geometry">
            <mxRectangle width="60" height="40" as="alternateBounds" />
          </mxGeometry>
        </mxCell>
        <mxCell id="5mL_y8emDGa73KxQi9rs-136" value="保价" style="shape=partialRectangle;html=1;whiteSpace=wrap;connectable=0;fillColor=none;top=0;left=0;bottom=0;right=0;overflow=hidden;pointerEvents=1;fontColor=#000000;" parent="5mL_y8emDGa73KxQi9rs-132" vertex="1">
          <mxGeometry x="180" width="60" height="40" as="geometry">
            <mxRectangle width="60" height="40" as="alternateBounds" />
          </mxGeometry>
        </mxCell>
        <mxCell id="5mL_y8emDGa73KxQi9rs-137" style="shape=tableRow;horizontal=0;startSize=0;swimlaneHead=0;swimlaneBody=0;top=0;left=0;bottom=0;right=0;collapsible=0;dropTarget=0;fillColor=none;points=[[0,0.5],[1,0.5]];portConstraint=eastwest;fontColor=#000000;" parent="5mL_y8emDGa73KxQi9rs-93" vertex="1">
          <mxGeometry y="240" width="240" height="40" as="geometry" />
        </mxCell>
        <mxCell id="5mL_y8emDGa73KxQi9rs-138" value="窗口6" style="shape=partialRectangle;html=1;whiteSpace=wrap;connectable=0;fillColor=none;top=0;left=0;bottom=0;right=0;overflow=hidden;fontColor=#000000;" parent="5mL_y8emDGa73KxQi9rs-137" vertex="1">
          <mxGeometry width="60" height="40" as="geometry">
            <mxRectangle width="60" height="40" as="alternateBounds" />
          </mxGeometry>
        </mxCell>
        <mxCell id="5mL_y8emDGa73KxQi9rs-139" value="" style="shape=partialRectangle;html=1;whiteSpace=wrap;connectable=0;fillColor=none;top=0;left=0;bottom=0;right=0;overflow=hidden;fontColor=#000000;" parent="5mL_y8emDGa73KxQi9rs-137" vertex="1">
          <mxGeometry x="60" width="60" height="40" as="geometry">
            <mxRectangle width="60" height="40" as="alternateBounds" />
          </mxGeometry>
        </mxCell>
        <mxCell id="5mL_y8emDGa73KxQi9rs-140" style="shape=partialRectangle;html=1;whiteSpace=wrap;connectable=0;fillColor=none;top=0;left=0;bottom=0;right=0;overflow=hidden;fontColor=#000000;" parent="5mL_y8emDGa73KxQi9rs-137" vertex="1">
          <mxGeometry x="120" width="60" height="40" as="geometry">
            <mxRectangle width="60" height="40" as="alternateBounds" />
          </mxGeometry>
        </mxCell>
        <mxCell id="5mL_y8emDGa73KxQi9rs-141" value="运单" style="shape=partialRectangle;html=1;whiteSpace=wrap;connectable=0;fillColor=none;top=0;left=0;bottom=0;right=0;overflow=hidden;pointerEvents=1;fontColor=#000000;" parent="5mL_y8emDGa73KxQi9rs-137" vertex="1">
          <mxGeometry x="180" width="60" height="40" as="geometry">
            <mxRectangle width="60" height="40" as="alternateBounds" />
          </mxGeometry>
        </mxCell>
        <mxCell id="5mL_y8emDGa73KxQi9rs-131" value="" style="endArrow=none;html=1;rounded=0;fontColor=#000000;exitX=0.004;exitY=0;exitDx=0;exitDy=0;exitPerimeter=0;entryX=0.258;entryY=-0.025;entryDx=0;entryDy=0;entryPerimeter=0;" parent="5mL_y8emDGa73KxQi9rs-93" source="5mL_y8emDGa73KxQi9rs-123" target="5mL_y8emDGa73KxQi9rs-94" edge="1">
          <mxGeometry width="50" height="50" relative="1" as="geometry">
            <mxPoint x="-80" y="50" as="sourcePoint" />
            <mxPoint x="-30" as="targetPoint" />
          </mxGeometry>
        </mxCell>
        <mxCell id="5mL_y8emDGa73KxQi9rs-129" value="窗口" style="text;html=1;align=center;verticalAlign=middle;resizable=0;points=[];autosize=1;strokeColor=none;fillColor=none;fontColor=#000000;" parent="1" vertex="1">
          <mxGeometry x="770" y="740" width="40" height="20" as="geometry" />
        </mxCell>
        <mxCell id="5mL_y8emDGa73KxQi9rs-130" value="顺序" style="text;html=1;align=center;verticalAlign=middle;resizable=0;points=[];autosize=1;strokeColor=none;fillColor=none;fontColor=#000000;" parent="1" vertex="1">
          <mxGeometry x="794.5" y="720" width="40" height="20" as="geometry" />
        </mxCell>
        <mxCell id="5mL_y8emDGa73KxQi9rs-155" value="" style="shape=table;html=1;whiteSpace=wrap;startSize=0;container=1;collapsible=0;childLayout=tableLayout;fontColor=#000000;" parent="1" vertex="1">
          <mxGeometry x="1100" y="720" width="60" height="280" as="geometry" />
        </mxCell>
        <mxCell id="5mL_y8emDGa73KxQi9rs-156" value="" style="shape=tableRow;horizontal=0;startSize=0;swimlaneHead=0;swimlaneBody=0;top=0;left=0;bottom=0;right=0;collapsible=0;dropTarget=0;fillColor=none;points=[[0,0.5],[1,0.5]];portConstraint=eastwest;fontColor=#000000;" parent="5mL_y8emDGa73KxQi9rs-155" vertex="1">
          <mxGeometry width="60" height="40" as="geometry" />
        </mxCell>
        <mxCell id="5mL_y8emDGa73KxQi9rs-157" value="保留结果" style="shape=partialRectangle;html=1;whiteSpace=wrap;connectable=0;fillColor=none;top=0;left=0;bottom=0;right=0;overflow=hidden;fontColor=#000000;" parent="5mL_y8emDGa73KxQi9rs-156" vertex="1">
          <mxGeometry width="60" height="40" as="geometry">
            <mxRectangle width="60" height="40" as="alternateBounds" />
          </mxGeometry>
        </mxCell>
        <mxCell id="5mL_y8emDGa73KxQi9rs-160" value="" style="shape=tableRow;horizontal=0;startSize=0;swimlaneHead=0;swimlaneBody=0;top=0;left=0;bottom=0;right=0;collapsible=0;dropTarget=0;fillColor=none;points=[[0,0.5],[1,0.5]];portConstraint=eastwest;fontColor=#000000;" parent="5mL_y8emDGa73KxQi9rs-155" vertex="1">
          <mxGeometry y="40" width="60" height="40" as="geometry" />
        </mxCell>
        <mxCell id="5mL_y8emDGa73KxQi9rs-161" value="3" style="shape=partialRectangle;html=1;whiteSpace=wrap;connectable=0;fillColor=none;top=0;left=0;bottom=0;right=0;overflow=hidden;fontColor=#000000;" parent="5mL_y8emDGa73KxQi9rs-160" vertex="1">
          <mxGeometry width="60" height="40" as="geometry">
            <mxRectangle width="60" height="40" as="alternateBounds" />
          </mxGeometry>
        </mxCell>
        <mxCell id="5mL_y8emDGa73KxQi9rs-164" value="" style="shape=tableRow;horizontal=0;startSize=0;swimlaneHead=0;swimlaneBody=0;top=0;left=0;bottom=0;right=0;collapsible=0;dropTarget=0;fillColor=none;points=[[0,0.5],[1,0.5]];portConstraint=eastwest;fontColor=#000000;" parent="5mL_y8emDGa73KxQi9rs-155" vertex="1">
          <mxGeometry y="80" width="60" height="40" as="geometry" />
        </mxCell>
        <mxCell id="5mL_y8emDGa73KxQi9rs-165" value="1+3 内存合并" style="shape=partialRectangle;html=1;whiteSpace=wrap;connectable=0;fillColor=none;top=0;left=0;bottom=0;right=0;overflow=hidden;fontColor=#000000;" parent="5mL_y8emDGa73KxQi9rs-164" vertex="1">
          <mxGeometry width="60" height="40" as="geometry">
            <mxRectangle width="60" height="40" as="alternateBounds" />
          </mxGeometry>
        </mxCell>
        <mxCell id="5mL_y8emDGa73KxQi9rs-171" style="shape=tableRow;horizontal=0;startSize=0;swimlaneHead=0;swimlaneBody=0;top=0;left=0;bottom=0;right=0;collapsible=0;dropTarget=0;fillColor=none;points=[[0,0.5],[1,0.5]];portConstraint=eastwest;fontColor=#000000;" parent="5mL_y8emDGa73KxQi9rs-155" vertex="1">
          <mxGeometry y="120" width="60" height="40" as="geometry" />
        </mxCell>
        <mxCell id="5mL_y8emDGa73KxQi9rs-172" value="3" style="shape=partialRectangle;html=1;whiteSpace=wrap;connectable=0;fillColor=none;top=0;left=0;bottom=0;right=0;overflow=hidden;fontColor=#000000;" parent="5mL_y8emDGa73KxQi9rs-171" vertex="1">
          <mxGeometry width="60" height="40" as="geometry">
            <mxRectangle width="60" height="40" as="alternateBounds" />
          </mxGeometry>
        </mxCell>
        <mxCell id="5mL_y8emDGa73KxQi9rs-173" style="shape=tableRow;horizontal=0;startSize=0;swimlaneHead=0;swimlaneBody=0;top=0;left=0;bottom=0;right=0;collapsible=0;dropTarget=0;fillColor=none;points=[[0,0.5],[1,0.5]];portConstraint=eastwest;fontColor=#000000;" parent="5mL_y8emDGa73KxQi9rs-155" vertex="1">
          <mxGeometry y="160" width="60" height="40" as="geometry" />
        </mxCell>
        <mxCell id="5mL_y8emDGa73KxQi9rs-174" value="2+1 合并" style="shape=partialRectangle;html=1;whiteSpace=wrap;connectable=0;fillColor=none;top=0;left=0;bottom=0;right=0;overflow=hidden;fontColor=#000000;" parent="5mL_y8emDGa73KxQi9rs-173" vertex="1">
          <mxGeometry width="60" height="40" as="geometry">
            <mxRectangle width="60" height="40" as="alternateBounds" />
          </mxGeometry>
        </mxCell>
        <mxCell id="5mL_y8emDGa73KxQi9rs-175" style="shape=tableRow;horizontal=0;startSize=0;swimlaneHead=0;swimlaneBody=0;top=0;left=0;bottom=0;right=0;collapsible=0;dropTarget=0;fillColor=none;points=[[0,0.5],[1,0.5]];portConstraint=eastwest;fontColor=#000000;" parent="5mL_y8emDGa73KxQi9rs-155" vertex="1">
          <mxGeometry y="200" width="60" height="40" as="geometry" />
        </mxCell>
        <mxCell id="5mL_y8emDGa73KxQi9rs-176" value="局部更新" style="shape=partialRectangle;html=1;whiteSpace=wrap;connectable=0;fillColor=none;top=0;left=0;bottom=0;right=0;overflow=hidden;fontColor=#000000;" parent="5mL_y8emDGa73KxQi9rs-175" vertex="1">
          <mxGeometry width="60" height="40" as="geometry">
            <mxRectangle width="60" height="40" as="alternateBounds" />
          </mxGeometry>
        </mxCell>
        <mxCell id="5mL_y8emDGa73KxQi9rs-177" style="shape=tableRow;horizontal=0;startSize=0;swimlaneHead=0;swimlaneBody=0;top=0;left=0;bottom=0;right=0;collapsible=0;dropTarget=0;fillColor=none;points=[[0,0.5],[1,0.5]];portConstraint=eastwest;fontColor=#000000;" parent="5mL_y8emDGa73KxQi9rs-155" vertex="1">
          <mxGeometry y="240" width="60" height="40" as="geometry" />
        </mxCell>
        <mxCell id="5mL_y8emDGa73KxQi9rs-178" value="覆盖写入" style="shape=partialRectangle;html=1;whiteSpace=wrap;connectable=0;fillColor=none;top=0;left=0;bottom=0;right=0;overflow=hidden;fontColor=#000000;" parent="5mL_y8emDGa73KxQi9rs-177" vertex="1">
          <mxGeometry width="60" height="40" as="geometry">
            <mxRectangle width="60" height="40" as="alternateBounds" />
          </mxGeometry>
        </mxCell>
        <mxCell id="5mL_y8emDGa73KxQi9rs-179" value="" style="shape=flexArrow;endArrow=classic;html=1;rounded=0;fontColor=#000000;width=25;endSize=4.34;" parent="1" edge="1">
          <mxGeometry width="50" height="50" relative="1" as="geometry">
            <mxPoint x="1020" y="856" as="sourcePoint" />
            <mxPoint x="1090" y="856" as="targetPoint" />
          </mxGeometry>
        </mxCell>
      </root>
    </mxGraphModel>
  </diagram>
  <diagram id="oo9VUsOnVIVHBhcxJ9QT" name="第 4 页">
    <mxGraphModel dx="1434" dy="708" grid="1" gridSize="10" guides="1" tooltips="1" connect="1" arrows="1" fold="1" page="1" pageScale="1" pageWidth="827" pageHeight="1169" math="0" shadow="0">
      <root>
        <mxCell id="0" />
        <mxCell id="1" parent="0" />
        <mxCell id="ck2dfJqPOFLvT_J_ps-i-124" value="" style="rounded=1;whiteSpace=wrap;html=1;" parent="1" vertex="1">
          <mxGeometry x="16.25" y="440" width="712.5" height="360" as="geometry" />
        </mxCell>
        <mxCell id="ck2dfJqPOFLvT_J_ps-i-184" value="" style="rounded=1;whiteSpace=wrap;html=1;" parent="1" vertex="1">
          <mxGeometry x="112.5" y="450" width="577.5" height="110" as="geometry" />
        </mxCell>
        <mxCell id="ck2dfJqPOFLvT_J_ps-i-80" value="" style="rounded=1;whiteSpace=wrap;html=1;" parent="1" vertex="1">
          <mxGeometry x="10" y="20" width="690" height="400" as="geometry" />
        </mxCell>
        <mxCell id="ck2dfJqPOFLvT_J_ps-i-75" value="" style="rounded=1;whiteSpace=wrap;html=1;" parent="1" vertex="1">
          <mxGeometry x="80" y="192" width="590" height="223" as="geometry" />
        </mxCell>
        <mxCell id="ck2dfJqPOFLvT_J_ps-i-74" value="" style="rounded=1;whiteSpace=wrap;html=1;" parent="1" vertex="1">
          <mxGeometry x="80" y="50" width="590" height="135" as="geometry" />
        </mxCell>
        <mxCell id="ck2dfJqPOFLvT_J_ps-i-6" value="只接 binlog" style="text;html=1;strokeColor=none;fillColor=none;align=center;verticalAlign=middle;whiteSpace=wrap;rounded=0;" parent="1" vertex="1">
          <mxGeometry x="90" y="97.5" width="80" height="30" as="geometry" />
        </mxCell>
        <mxCell id="ck2dfJqPOFLvT_J_ps-i-7" value="开始" style="ellipse;whiteSpace=wrap;html=1;" parent="1" vertex="1">
          <mxGeometry x="230" y="110" width="50" height="45" as="geometry" />
        </mxCell>
        <mxCell id="ck2dfJqPOFLvT_J_ps-i-8" value="" style="endArrow=classic;html=1;rounded=0;exitX=1;exitY=0.5;exitDx=0;exitDy=0;entryX=0;entryY=0.5;entryDx=0;entryDy=0;" parent="1" source="ck2dfJqPOFLvT_J_ps-i-7" edge="1">
          <mxGeometry width="50" height="50" relative="1" as="geometry">
            <mxPoint x="320" y="165" as="sourcePoint" />
            <mxPoint x="330" y="132.5" as="targetPoint" />
          </mxGeometry>
        </mxCell>
        <mxCell id="ck2dfJqPOFLvT_J_ps-i-14" style="edgeStyle=orthogonalEdgeStyle;rounded=0;orthogonalLoop=1;jettySize=auto;html=1;exitX=1;exitY=0.5;exitDx=0;exitDy=0;" parent="1" edge="1">
          <mxGeometry relative="1" as="geometry">
            <mxPoint x="380" y="132.5" as="sourcePoint" />
            <mxPoint x="440" y="132.5" as="targetPoint" />
          </mxGeometry>
        </mxCell>
        <mxCell id="ck2dfJqPOFLvT_J_ps-i-16" style="edgeStyle=orthogonalEdgeStyle;rounded=0;orthogonalLoop=1;jettySize=auto;html=1;exitX=1;exitY=0.5;exitDx=0;exitDy=0;entryX=0.031;entryY=0.5;entryDx=0;entryDy=0;entryPerimeter=0;" parent="1" target="ck2dfJqPOFLvT_J_ps-i-67" edge="1">
          <mxGeometry relative="1" as="geometry">
            <mxPoint x="490" y="132.5" as="sourcePoint" />
            <mxPoint x="570" y="132.5" as="targetPoint" />
          </mxGeometry>
        </mxCell>
        <mxCell id="ck2dfJqPOFLvT_J_ps-i-17" value="hudi 接入状态为 1" style="text;html=1;strokeColor=none;fillColor=none;align=center;verticalAlign=middle;whiteSpace=wrap;rounded=0;" parent="1" vertex="1">
          <mxGeometry x="382" y="61" width="60" height="30" as="geometry" />
        </mxCell>
        <mxCell id="ck2dfJqPOFLvT_J_ps-i-19" value="binlog + mysql全量" style="text;html=1;strokeColor=none;fillColor=none;align=center;verticalAlign=middle;whiteSpace=wrap;rounded=0;" parent="1" vertex="1">
          <mxGeometry x="90" y="147.5" width="80" height="30" as="geometry" />
        </mxCell>
        <mxCell id="ck2dfJqPOFLvT_J_ps-i-20" value="binlog + mysql全量 + hive 全量" style="text;html=1;strokeColor=none;fillColor=none;align=center;verticalAlign=middle;whiteSpace=wrap;rounded=0;" parent="1" vertex="1">
          <mxGeometry x="100" y="287.5" width="80" height="40" as="geometry" />
        </mxCell>
        <mxCell id="ck2dfJqPOFLvT_J_ps-i-21" value="开始" style="ellipse;whiteSpace=wrap;html=1;" parent="1" vertex="1">
          <mxGeometry x="230" y="237.5" width="50" height="45" as="geometry" />
        </mxCell>
        <mxCell id="ck2dfJqPOFLvT_J_ps-i-22" value="" style="endArrow=classic;html=1;rounded=0;exitX=1;exitY=0.5;exitDx=0;exitDy=0;entryX=0;entryY=0.5;entryDx=0;entryDy=0;" parent="1" source="ck2dfJqPOFLvT_J_ps-i-21" edge="1">
          <mxGeometry width="50" height="50" relative="1" as="geometry">
            <mxPoint x="320" y="292.5" as="sourcePoint" />
            <mxPoint x="330" y="260" as="targetPoint" />
          </mxGeometry>
        </mxCell>
        <mxCell id="ck2dfJqPOFLvT_J_ps-i-23" style="edgeStyle=orthogonalEdgeStyle;rounded=0;orthogonalLoop=1;jettySize=auto;html=1;exitX=1;exitY=0.5;exitDx=0;exitDy=0;" parent="1" edge="1">
          <mxGeometry relative="1" as="geometry">
            <mxPoint x="380" y="260" as="sourcePoint" />
            <mxPoint x="430" y="260" as="targetPoint" />
          </mxGeometry>
        </mxCell>
        <mxCell id="ck2dfJqPOFLvT_J_ps-i-29" value="hudi&amp;nbsp; 接入状态为 0" style="text;html=1;strokeColor=none;fillColor=none;align=center;verticalAlign=middle;whiteSpace=wrap;rounded=0;" parent="1" vertex="1">
          <mxGeometry x="382" y="195.75" width="67" height="28.5" as="geometry" />
        </mxCell>
        <mxCell id="ck2dfJqPOFLvT_J_ps-i-38" style="edgeStyle=orthogonalEdgeStyle;rounded=0;orthogonalLoop=1;jettySize=auto;html=1;exitX=1;exitY=0.5;exitDx=0;exitDy=0;" parent="1" source="ck2dfJqPOFLvT_J_ps-i-34" target="ck2dfJqPOFLvT_J_ps-i-37" edge="1">
          <mxGeometry relative="1" as="geometry" />
        </mxCell>
        <mxCell id="ck2dfJqPOFLvT_J_ps-i-34" value="&lt;span style=&quot;&quot;&gt;直通车check调度任务状态&lt;/span&gt;" style="ellipse;whiteSpace=wrap;html=1;aspect=fixed;" parent="1" vertex="1">
          <mxGeometry x="230" y="327.5" width="60" height="60" as="geometry" />
        </mxCell>
        <mxCell id="ck2dfJqPOFLvT_J_ps-i-44" style="edgeStyle=orthogonalEdgeStyle;rounded=0;orthogonalLoop=1;jettySize=auto;html=1;exitX=0.5;exitY=0;exitDx=0;exitDy=0;entryX=0;entryY=0.5;entryDx=0;entryDy=0;" parent="1" source="ck2dfJqPOFLvT_J_ps-i-37" target="ck2dfJqPOFLvT_J_ps-i-39" edge="1">
          <mxGeometry relative="1" as="geometry">
            <mxPoint x="380" y="328" as="targetPoint" />
            <Array as="points">
              <mxPoint x="380" y="328" />
              <mxPoint x="380" y="328" />
            </Array>
          </mxGeometry>
        </mxCell>
        <mxCell id="ck2dfJqPOFLvT_J_ps-i-45" style="edgeStyle=orthogonalEdgeStyle;rounded=0;orthogonalLoop=1;jettySize=auto;html=1;exitX=1;exitY=0.5;exitDx=0;exitDy=0;" parent="1" source="ck2dfJqPOFLvT_J_ps-i-37" target="ck2dfJqPOFLvT_J_ps-i-40" edge="1">
          <mxGeometry relative="1" as="geometry" />
        </mxCell>
        <mxCell id="ck2dfJqPOFLvT_J_ps-i-46" style="edgeStyle=orthogonalEdgeStyle;rounded=0;orthogonalLoop=1;jettySize=auto;html=1;exitX=0.5;exitY=1;exitDx=0;exitDy=0;" parent="1" source="ck2dfJqPOFLvT_J_ps-i-37" target="ck2dfJqPOFLvT_J_ps-i-41" edge="1">
          <mxGeometry relative="1" as="geometry">
            <Array as="points">
              <mxPoint x="455" y="387.5" />
              <mxPoint x="455" y="387.5" />
            </Array>
          </mxGeometry>
        </mxCell>
        <mxCell id="ck2dfJqPOFLvT_J_ps-i-37" value="调度运行状态" style="ellipse;whiteSpace=wrap;html=1;aspect=fixed;" parent="1" vertex="1">
          <mxGeometry x="317.5" y="327.5" width="60" height="60" as="geometry" />
        </mxCell>
        <mxCell id="ck2dfJqPOFLvT_J_ps-i-39" value="运行中" style="text;html=1;strokeColor=#6c8ebf;fillColor=#dae8fc;align=center;verticalAlign=middle;whiteSpace=wrap;rounded=0;" parent="1" vertex="1">
          <mxGeometry x="405" y="315" width="60" height="26" as="geometry" />
        </mxCell>
        <mxCell id="ck2dfJqPOFLvT_J_ps-i-51" style="edgeStyle=orthogonalEdgeStyle;rounded=0;orthogonalLoop=1;jettySize=auto;html=1;exitX=1;exitY=0.5;exitDx=0;exitDy=0;entryX=0;entryY=0.5;entryDx=0;entryDy=0;" parent="1" source="ck2dfJqPOFLvT_J_ps-i-40" target="ck2dfJqPOFLvT_J_ps-i-49" edge="1">
          <mxGeometry relative="1" as="geometry" />
        </mxCell>
        <mxCell id="ck2dfJqPOFLvT_J_ps-i-40" value="失败" style="text;html=1;strokeColor=#B20000;fillColor=#e51400;align=center;verticalAlign=middle;whiteSpace=wrap;rounded=0;fontColor=#ffffff;" parent="1" vertex="1">
          <mxGeometry x="407" y="344.5" width="60" height="25" as="geometry" />
        </mxCell>
        <mxCell id="ck2dfJqPOFLvT_J_ps-i-52" style="edgeStyle=orthogonalEdgeStyle;rounded=0;orthogonalLoop=1;jettySize=auto;html=1;exitX=1;exitY=0.5;exitDx=0;exitDy=0;entryX=0;entryY=0.5;entryDx=0;entryDy=0;" parent="1" source="ck2dfJqPOFLvT_J_ps-i-41" target="ck2dfJqPOFLvT_J_ps-i-188" edge="1">
          <mxGeometry relative="1" as="geometry" />
        </mxCell>
        <mxCell id="ck2dfJqPOFLvT_J_ps-i-41" value="成功" style="text;html=1;strokeColor=#005700;fillColor=#008a00;align=center;verticalAlign=middle;whiteSpace=wrap;rounded=0;fontColor=#ffffff;" parent="1" vertex="1">
          <mxGeometry x="407.5" y="373.5" width="60" height="25" as="geometry" />
        </mxCell>
        <mxCell id="ck2dfJqPOFLvT_J_ps-i-49" value="告警处理" style="rounded=0;whiteSpace=wrap;html=1;" parent="1" vertex="1">
          <mxGeometry x="575" y="345" width="70" height="25" as="geometry" />
        </mxCell>
        <mxCell id="ck2dfJqPOFLvT_J_ps-i-50" value="重启 cdc" style="rounded=0;whiteSpace=wrap;html=1;" parent="1" vertex="1">
          <mxGeometry x="577.5" y="374.75" width="67.5" height="23.75" as="geometry" />
        </mxCell>
        <mxCell id="ck2dfJqPOFLvT_J_ps-i-56" value="" style="shape=cross;whiteSpace=wrap;html=1;size=0;" parent="1" vertex="1">
          <mxGeometry x="120" y="125" width="20" height="22.5" as="geometry" />
        </mxCell>
        <mxCell id="ck2dfJqPOFLvT_J_ps-i-60" value="" style="html=1;shadow=0;dashed=0;align=center;verticalAlign=middle;shape=mxgraph.arrows2.arrow;dy=0;dx=30;notch=30;" parent="1" vertex="1">
          <mxGeometry x="259" y="323" width="10" height="10" as="geometry" />
        </mxCell>
        <mxCell id="ck2dfJqPOFLvT_J_ps-i-62" value="" style="html=1;shadow=0;dashed=0;align=center;verticalAlign=middle;shape=mxgraph.arrows2.arrow;dy=0;dx=30;notch=30;rotation=-180;" parent="1" vertex="1">
          <mxGeometry x="256" y="381" width="10" height="10" as="geometry" />
        </mxCell>
        <mxCell id="ck2dfJqPOFLvT_J_ps-i-65" style="edgeStyle=orthogonalEdgeStyle;rounded=0;orthogonalLoop=1;jettySize=auto;html=1;exitX=0.5;exitY=0;exitDx=0;exitDy=0;entryX=0;entryY=0.5;entryDx=0;entryDy=0;" parent="1" source="ck2dfJqPOFLvT_J_ps-i-63" target="ck2dfJqPOFLvT_J_ps-i-17" edge="1">
          <mxGeometry relative="1" as="geometry" />
        </mxCell>
        <mxCell id="ck2dfJqPOFLvT_J_ps-i-63" value="&lt;span style=&quot;&quot;&gt;审批通过&lt;/span&gt;" style="rounded=1;whiteSpace=wrap;html=1;" parent="1" vertex="1">
          <mxGeometry x="330" y="117.5" width="65" height="30" as="geometry" />
        </mxCell>
        <mxCell id="ck2dfJqPOFLvT_J_ps-i-66" value="&lt;span style=&quot;&quot;&gt;重启 cdc&lt;/span&gt;" style="rounded=1;whiteSpace=wrap;html=1;" parent="1" vertex="1">
          <mxGeometry x="440" y="117.5" width="65" height="30" as="geometry" />
        </mxCell>
        <mxCell id="ck2dfJqPOFLvT_J_ps-i-67" value="cdc获取新增表" style="rounded=1;whiteSpace=wrap;html=1;" parent="1" vertex="1">
          <mxGeometry x="555" y="117.5" width="65" height="30" as="geometry" />
        </mxCell>
        <mxCell id="ck2dfJqPOFLvT_J_ps-i-69" style="edgeStyle=orthogonalEdgeStyle;rounded=0;orthogonalLoop=1;jettySize=auto;html=1;exitX=0.5;exitY=0;exitDx=0;exitDy=0;entryX=0;entryY=0.5;entryDx=0;entryDy=0;" parent="1" source="ck2dfJqPOFLvT_J_ps-i-68" target="ck2dfJqPOFLvT_J_ps-i-29" edge="1">
          <mxGeometry relative="1" as="geometry" />
        </mxCell>
        <mxCell id="ck2dfJqPOFLvT_J_ps-i-68" value="&lt;span style=&quot;&quot;&gt;审批通过&lt;/span&gt;" style="rounded=1;whiteSpace=wrap;html=1;" parent="1" vertex="1">
          <mxGeometry x="330" y="245" width="65" height="30" as="geometry" />
        </mxCell>
        <mxCell id="ck2dfJqPOFLvT_J_ps-i-70" value="生成hive同步调度任务" style="rounded=1;whiteSpace=wrap;html=1;" parent="1" vertex="1">
          <mxGeometry x="430" y="245" width="65" height="30" as="geometry" />
        </mxCell>
        <mxCell id="ck2dfJqPOFLvT_J_ps-i-122" value="新接表 / 接已有 kafka 表" style="text;html=1;strokeColor=none;fillColor=none;align=center;verticalAlign=middle;whiteSpace=wrap;rounded=0;" parent="1" vertex="1">
          <mxGeometry x="35" y="20" width="145" height="30" as="geometry" />
        </mxCell>
        <mxCell id="ck2dfJqPOFLvT_J_ps-i-125" value="" style="rounded=1;whiteSpace=wrap;html=1;" parent="1" vertex="1">
          <mxGeometry x="112.5" y="577" width="577.5" height="218" as="geometry" />
        </mxCell>
        <mxCell id="ck2dfJqPOFLvT_J_ps-i-134" value="+ mysql 全量 + hive 全量" style="text;html=1;strokeColor=none;fillColor=none;align=center;verticalAlign=middle;whiteSpace=wrap;rounded=0;" parent="1" vertex="1">
          <mxGeometry x="122.5" y="577" width="80" height="36" as="geometry" />
        </mxCell>
        <mxCell id="ck2dfJqPOFLvT_J_ps-i-135" value="开始" style="ellipse;whiteSpace=wrap;html=1;" parent="1" vertex="1">
          <mxGeometry x="180" y="626" width="50" height="45" as="geometry" />
        </mxCell>
        <mxCell id="ck2dfJqPOFLvT_J_ps-i-136" value="" style="endArrow=classic;html=1;rounded=0;exitX=1;exitY=0.5;exitDx=0;exitDy=0;entryX=0;entryY=0.5;entryDx=0;entryDy=0;" parent="1" source="ck2dfJqPOFLvT_J_ps-i-135" target="ck2dfJqPOFLvT_J_ps-i-161" edge="1">
          <mxGeometry width="50" height="50" relative="1" as="geometry">
            <mxPoint x="352.5" y="681" as="sourcePoint" />
            <mxPoint x="362.5" y="648.5" as="targetPoint" />
          </mxGeometry>
        </mxCell>
        <mxCell id="ck2dfJqPOFLvT_J_ps-i-137" style="edgeStyle=orthogonalEdgeStyle;rounded=0;orthogonalLoop=1;jettySize=auto;html=1;exitX=1;exitY=0.5;exitDx=0;exitDy=0;" parent="1" edge="1">
          <mxGeometry relative="1" as="geometry">
            <mxPoint x="412.5" y="648.5" as="sourcePoint" />
            <mxPoint x="462.5" y="648.5" as="targetPoint" />
          </mxGeometry>
        </mxCell>
        <mxCell id="ck2dfJqPOFLvT_J_ps-i-138" value="hudi 接入状态为 0" style="text;html=1;strokeColor=none;fillColor=none;align=center;verticalAlign=middle;whiteSpace=wrap;rounded=0;" parent="1" vertex="1">
          <mxGeometry x="330" y="583" width="60" height="30" as="geometry" />
        </mxCell>
        <mxCell id="ck2dfJqPOFLvT_J_ps-i-139" style="edgeStyle=orthogonalEdgeStyle;rounded=0;orthogonalLoop=1;jettySize=auto;html=1;exitX=1;exitY=0.5;exitDx=0;exitDy=0;" parent="1" source="ck2dfJqPOFLvT_J_ps-i-140" target="ck2dfJqPOFLvT_J_ps-i-145" edge="1">
          <mxGeometry relative="1" as="geometry" />
        </mxCell>
        <mxCell id="ck2dfJqPOFLvT_J_ps-i-140" value="&lt;span style=&quot;&quot;&gt;直通车check调度任务状态&lt;/span&gt;" style="ellipse;whiteSpace=wrap;html=1;aspect=fixed;" parent="1" vertex="1">
          <mxGeometry x="181.5" y="715.5" width="60" height="60" as="geometry" />
        </mxCell>
        <mxCell id="ck2dfJqPOFLvT_J_ps-i-142" style="edgeStyle=orthogonalEdgeStyle;rounded=0;orthogonalLoop=1;jettySize=auto;html=1;exitX=0.5;exitY=0;exitDx=0;exitDy=0;" parent="1" source="ck2dfJqPOFLvT_J_ps-i-145" target="ck2dfJqPOFLvT_J_ps-i-146" edge="1">
          <mxGeometry relative="1" as="geometry">
            <Array as="points">
              <mxPoint x="430" y="716" />
              <mxPoint x="430" y="716" />
            </Array>
          </mxGeometry>
        </mxCell>
        <mxCell id="ck2dfJqPOFLvT_J_ps-i-143" style="edgeStyle=orthogonalEdgeStyle;rounded=0;orthogonalLoop=1;jettySize=auto;html=1;exitX=1;exitY=0.5;exitDx=0;exitDy=0;" parent="1" source="ck2dfJqPOFLvT_J_ps-i-145" target="ck2dfJqPOFLvT_J_ps-i-148" edge="1">
          <mxGeometry relative="1" as="geometry" />
        </mxCell>
        <mxCell id="ck2dfJqPOFLvT_J_ps-i-144" style="edgeStyle=orthogonalEdgeStyle;rounded=0;orthogonalLoop=1;jettySize=auto;html=1;exitX=0.5;exitY=1;exitDx=0;exitDy=0;" parent="1" source="ck2dfJqPOFLvT_J_ps-i-145" target="ck2dfJqPOFLvT_J_ps-i-150" edge="1">
          <mxGeometry relative="1" as="geometry">
            <Array as="points">
              <mxPoint x="410" y="776" />
              <mxPoint x="410" y="776" />
            </Array>
          </mxGeometry>
        </mxCell>
        <mxCell id="ck2dfJqPOFLvT_J_ps-i-145" value="调度运行状态" style="ellipse;whiteSpace=wrap;html=1;aspect=fixed;" parent="1" vertex="1">
          <mxGeometry x="310" y="716" width="60" height="60" as="geometry" />
        </mxCell>
        <mxCell id="ck2dfJqPOFLvT_J_ps-i-146" value="运行中" style="text;html=1;strokeColor=#6c8ebf;fillColor=#dae8fc;align=center;verticalAlign=middle;whiteSpace=wrap;rounded=0;" parent="1" vertex="1">
          <mxGeometry x="390" y="703.5" width="60" height="26" as="geometry" />
        </mxCell>
        <mxCell id="ck2dfJqPOFLvT_J_ps-i-147" style="edgeStyle=orthogonalEdgeStyle;rounded=0;orthogonalLoop=1;jettySize=auto;html=1;exitX=1;exitY=0.5;exitDx=0;exitDy=0;entryX=0;entryY=0.5;entryDx=0;entryDy=0;" parent="1" source="ck2dfJqPOFLvT_J_ps-i-148" target="ck2dfJqPOFLvT_J_ps-i-151" edge="1">
          <mxGeometry relative="1" as="geometry" />
        </mxCell>
        <mxCell id="ck2dfJqPOFLvT_J_ps-i-148" value="失败" style="text;html=1;strokeColor=#B20000;fillColor=#e51400;align=center;verticalAlign=middle;whiteSpace=wrap;rounded=0;fontColor=#ffffff;" parent="1" vertex="1">
          <mxGeometry x="390" y="733.5" width="60" height="25" as="geometry" />
        </mxCell>
        <mxCell id="ck2dfJqPOFLvT_J_ps-i-203" style="edgeStyle=orthogonalEdgeStyle;rounded=0;orthogonalLoop=1;jettySize=auto;html=1;entryX=0;entryY=0.5;entryDx=0;entryDy=0;" parent="1" source="ck2dfJqPOFLvT_J_ps-i-150" target="ck2dfJqPOFLvT_J_ps-i-202" edge="1">
          <mxGeometry relative="1" as="geometry" />
        </mxCell>
        <mxCell id="ck2dfJqPOFLvT_J_ps-i-150" value="成功" style="text;html=1;strokeColor=#005700;fillColor=#008a00;align=center;verticalAlign=middle;whiteSpace=wrap;rounded=0;fontColor=#ffffff;" parent="1" vertex="1">
          <mxGeometry x="390" y="764" width="60" height="25" as="geometry" />
        </mxCell>
        <mxCell id="ck2dfJqPOFLvT_J_ps-i-151" value="告警处理" style="rounded=0;whiteSpace=wrap;html=1;" parent="1" vertex="1">
          <mxGeometry x="619" y="733" width="70" height="25" as="geometry" />
        </mxCell>
        <mxCell id="ck2dfJqPOFLvT_J_ps-i-152" value="重启 cdc" style="rounded=0;whiteSpace=wrap;html=1;" parent="1" vertex="1">
          <mxGeometry x="594" y="764" width="70" height="24" as="geometry" />
        </mxCell>
        <mxCell id="ck2dfJqPOFLvT_J_ps-i-154" value="" style="html=1;shadow=0;dashed=0;align=center;verticalAlign=middle;shape=mxgraph.arrows2.arrow;dy=0;dx=30;notch=30;" parent="1" vertex="1">
          <mxGeometry x="214" y="711.5" width="10" height="10" as="geometry" />
        </mxCell>
        <mxCell id="ck2dfJqPOFLvT_J_ps-i-155" value="" style="html=1;shadow=0;dashed=0;align=center;verticalAlign=middle;shape=mxgraph.arrows2.arrow;dy=0;dx=30;notch=30;rotation=-180;" parent="1" vertex="1">
          <mxGeometry x="211" y="769.5" width="10" height="10" as="geometry" />
        </mxCell>
        <mxCell id="ck2dfJqPOFLvT_J_ps-i-160" style="edgeStyle=orthogonalEdgeStyle;rounded=0;orthogonalLoop=1;jettySize=auto;html=1;exitX=0.5;exitY=0;exitDx=0;exitDy=0;entryX=0;entryY=0.5;entryDx=0;entryDy=0;" parent="1" source="ck2dfJqPOFLvT_J_ps-i-161" target="ck2dfJqPOFLvT_J_ps-i-138" edge="1">
          <mxGeometry relative="1" as="geometry" />
        </mxCell>
        <mxCell id="ck2dfJqPOFLvT_J_ps-i-200" value="" style="edgeStyle=orthogonalEdgeStyle;rounded=0;orthogonalLoop=1;jettySize=auto;html=1;" parent="1" source="ck2dfJqPOFLvT_J_ps-i-161" target="ck2dfJqPOFLvT_J_ps-i-198" edge="1">
          <mxGeometry relative="1" as="geometry" />
        </mxCell>
        <mxCell id="ck2dfJqPOFLvT_J_ps-i-161" value="&lt;span style=&quot;&quot;&gt;审批通过&lt;/span&gt;" style="rounded=1;whiteSpace=wrap;html=1;" parent="1" vertex="1">
          <mxGeometry x="252.5" y="633.5" width="65" height="30" as="geometry" />
        </mxCell>
        <mxCell id="ck2dfJqPOFLvT_J_ps-i-163" value="生成hive同步调度任务" style="rounded=1;whiteSpace=wrap;html=1;" parent="1" vertex="1">
          <mxGeometry x="542.5" y="633.5" width="65" height="30" as="geometry" />
        </mxCell>
        <mxCell id="ck2dfJqPOFLvT_J_ps-i-164" value="hudi 增量后加全量" style="text;html=1;strokeColor=none;fillColor=none;align=center;verticalAlign=middle;whiteSpace=wrap;rounded=0;" parent="1" vertex="1">
          <mxGeometry x="32.5" y="450" width="60" height="30" as="geometry" />
        </mxCell>
        <mxCell id="ck2dfJqPOFLvT_J_ps-i-167" style="edgeStyle=orthogonalEdgeStyle;rounded=0;orthogonalLoop=1;jettySize=auto;html=1;exitX=1;exitY=0.5;exitDx=0;exitDy=0;entryX=0;entryY=0.5;entryDx=0;entryDy=0;" parent="1" source="ck2dfJqPOFLvT_J_ps-i-166" target="ck2dfJqPOFLvT_J_ps-i-163" edge="1">
          <mxGeometry relative="1" as="geometry" />
        </mxCell>
        <mxCell id="ck2dfJqPOFLvT_J_ps-i-166" value="删除表" style="rounded=1;whiteSpace=wrap;html=1;fillColor=#1ba1e2;fontColor=#ffffff;strokeColor=#006EAF;" parent="1" vertex="1">
          <mxGeometry x="449" y="633.5" width="55" height="30" as="geometry" />
        </mxCell>
        <mxCell id="ck2dfJqPOFLvT_J_ps-i-179" style="edgeStyle=orthogonalEdgeStyle;rounded=0;orthogonalLoop=1;jettySize=auto;html=1;exitX=1;exitY=0.5;exitDx=0;exitDy=0;" parent="1" source="ck2dfJqPOFLvT_J_ps-i-171" target="ck2dfJqPOFLvT_J_ps-i-174" edge="1">
          <mxGeometry relative="1" as="geometry" />
        </mxCell>
        <mxCell id="ck2dfJqPOFLvT_J_ps-i-171" value="开始" style="ellipse;whiteSpace=wrap;html=1;" parent="1" vertex="1">
          <mxGeometry x="180" y="505" width="50" height="45" as="geometry" />
        </mxCell>
        <mxCell id="ck2dfJqPOFLvT_J_ps-i-172" value="hudi 接入状态为 0" style="text;html=1;strokeColor=none;fillColor=none;align=center;verticalAlign=middle;whiteSpace=wrap;rounded=0;" parent="1" vertex="1">
          <mxGeometry x="354" y="459" width="60" height="30" as="geometry" />
        </mxCell>
        <mxCell id="ck2dfJqPOFLvT_J_ps-i-180" style="edgeStyle=orthogonalEdgeStyle;rounded=0;orthogonalLoop=1;jettySize=auto;html=1;exitX=0.5;exitY=0;exitDx=0;exitDy=0;entryX=0;entryY=0.5;entryDx=0;entryDy=0;" parent="1" source="ck2dfJqPOFLvT_J_ps-i-174" target="ck2dfJqPOFLvT_J_ps-i-172" edge="1">
          <mxGeometry relative="1" as="geometry" />
        </mxCell>
        <mxCell id="ck2dfJqPOFLvT_J_ps-i-181" value="" style="edgeStyle=orthogonalEdgeStyle;rounded=0;orthogonalLoop=1;jettySize=auto;html=1;entryX=0;entryY=0.5;entryDx=0;entryDy=0;" parent="1" source="ck2dfJqPOFLvT_J_ps-i-174" target="ck2dfJqPOFLvT_J_ps-i-193" edge="1">
          <mxGeometry relative="1" as="geometry" />
        </mxCell>
        <mxCell id="ck2dfJqPOFLvT_J_ps-i-174" value="&lt;span style=&quot;&quot;&gt;审批通过&lt;/span&gt;" style="rounded=1;whiteSpace=wrap;html=1;" parent="1" vertex="1">
          <mxGeometry x="264" y="512.5" width="65" height="30" as="geometry" />
        </mxCell>
        <mxCell id="ck2dfJqPOFLvT_J_ps-i-182" value="" style="edgeStyle=orthogonalEdgeStyle;rounded=0;orthogonalLoop=1;jettySize=auto;html=1;" parent="1" source="ck2dfJqPOFLvT_J_ps-i-176" target="ck2dfJqPOFLvT_J_ps-i-177" edge="1">
          <mxGeometry relative="1" as="geometry" />
        </mxCell>
        <mxCell id="ck2dfJqPOFLvT_J_ps-i-176" value="删除表" style="rounded=1;whiteSpace=wrap;html=1;fillColor=#1ba1e2;fontColor=#ffffff;strokeColor=#006EAF;" parent="1" vertex="1">
          <mxGeometry x="430" y="512.5" width="55" height="30" as="geometry" />
        </mxCell>
        <mxCell id="ck2dfJqPOFLvT_J_ps-i-183" value="" style="edgeStyle=orthogonalEdgeStyle;rounded=0;orthogonalLoop=1;jettySize=auto;html=1;" parent="1" source="ck2dfJqPOFLvT_J_ps-i-177" target="ck2dfJqPOFLvT_J_ps-i-178" edge="1">
          <mxGeometry relative="1" as="geometry" />
        </mxCell>
        <mxCell id="ck2dfJqPOFLvT_J_ps-i-177" value="&lt;span style=&quot;&quot;&gt;重启 cdc&lt;/span&gt;" style="rounded=1;whiteSpace=wrap;html=1;fillColor=#1ba1e2;fontColor=#ffffff;strokeColor=#006EAF;" parent="1" vertex="1">
          <mxGeometry x="505" y="512.5" width="65" height="30" as="geometry" />
        </mxCell>
        <mxCell id="ck2dfJqPOFLvT_J_ps-i-178" value="cdc获取新增表" style="rounded=1;whiteSpace=wrap;html=1;" parent="1" vertex="1">
          <mxGeometry x="600" y="512.5" width="65" height="30" as="geometry" />
        </mxCell>
        <mxCell id="ck2dfJqPOFLvT_J_ps-i-185" value="+ mysql 全量" style="text;html=1;strokeColor=none;fillColor=none;align=center;verticalAlign=middle;whiteSpace=wrap;rounded=0;" parent="1" vertex="1">
          <mxGeometry x="132.5" y="470" width="60" height="30" as="geometry" />
        </mxCell>
        <mxCell id="ck2dfJqPOFLvT_J_ps-i-189" value="" style="edgeStyle=orthogonalEdgeStyle;rounded=0;orthogonalLoop=1;jettySize=auto;html=1;" parent="1" source="ck2dfJqPOFLvT_J_ps-i-188" target="ck2dfJqPOFLvT_J_ps-i-50" edge="1">
          <mxGeometry relative="1" as="geometry" />
        </mxCell>
        <mxCell id="ck2dfJqPOFLvT_J_ps-i-188" value="更新接入状态 1" style="rounded=1;whiteSpace=wrap;html=1;" parent="1" vertex="1">
          <mxGeometry x="485" y="369.5" width="70" height="32" as="geometry" />
        </mxCell>
        <mxCell id="ck2dfJqPOFLvT_J_ps-i-195" style="edgeStyle=orthogonalEdgeStyle;rounded=0;orthogonalLoop=1;jettySize=auto;html=1;exitX=1;exitY=0.5;exitDx=0;exitDy=0;entryX=0;entryY=0.5;entryDx=0;entryDy=0;" parent="1" source="ck2dfJqPOFLvT_J_ps-i-193" target="ck2dfJqPOFLvT_J_ps-i-176" edge="1">
          <mxGeometry relative="1" as="geometry" />
        </mxCell>
        <mxCell id="ck2dfJqPOFLvT_J_ps-i-193" value="&lt;span style=&quot;&quot;&gt;重启 cdc&lt;/span&gt;" style="rounded=1;whiteSpace=wrap;html=1;" parent="1" vertex="1">
          <mxGeometry x="349" y="512.5" width="65" height="30" as="geometry" />
        </mxCell>
        <mxCell id="ck2dfJqPOFLvT_J_ps-i-196" value="或者 CDC 做表移除 避免多次重启" style="text;html=1;strokeColor=none;fillColor=none;align=left;verticalAlign=middle;whiteSpace=wrap;rounded=0;" parent="1" vertex="1">
          <mxGeometry x="750" y="512.5" width="130" height="37" as="geometry" />
        </mxCell>
        <mxCell id="ck2dfJqPOFLvT_J_ps-i-201" value="" style="edgeStyle=orthogonalEdgeStyle;rounded=0;orthogonalLoop=1;jettySize=auto;html=1;" parent="1" source="ck2dfJqPOFLvT_J_ps-i-198" target="ck2dfJqPOFLvT_J_ps-i-166" edge="1">
          <mxGeometry relative="1" as="geometry" />
        </mxCell>
        <mxCell id="ck2dfJqPOFLvT_J_ps-i-198" value="&lt;span style=&quot;&quot;&gt;重启 cdc&lt;/span&gt;" style="rounded=1;whiteSpace=wrap;html=1;" parent="1" vertex="1">
          <mxGeometry x="340" y="633.5" width="65" height="30" as="geometry" />
        </mxCell>
        <mxCell id="ck2dfJqPOFLvT_J_ps-i-204" value="" style="edgeStyle=orthogonalEdgeStyle;rounded=0;orthogonalLoop=1;jettySize=auto;html=1;" parent="1" source="ck2dfJqPOFLvT_J_ps-i-202" target="ck2dfJqPOFLvT_J_ps-i-152" edge="1">
          <mxGeometry relative="1" as="geometry" />
        </mxCell>
        <mxCell id="ck2dfJqPOFLvT_J_ps-i-202" value="更新接入状态 1" style="rounded=1;whiteSpace=wrap;html=1;" parent="1" vertex="1">
          <mxGeometry x="495" y="760.5" width="70" height="32" as="geometry" />
        </mxCell>
        <mxCell id="ck2dfJqPOFLvT_J_ps-i-206" value="1、对于同步 hive 的先生成一个调度任务,如果需要分配执行的就生成多个调度任务，直通车记录调度 id&lt;br&gt;&lt;br&gt;2、直通车定期去扫未完成的调度状态，当所有的调度都完成时则更新接入状态，并重启 cdc 程序，cdc 发现主动发现新增表&lt;br&gt;&lt;br&gt;3、对于调度失败的任务, 需要人工处理，将调度重试成功" style="text;html=1;strokeColor=none;fillColor=none;align=left;verticalAlign=middle;whiteSpace=wrap;rounded=0;" parent="1" vertex="1">
          <mxGeometry x="710" y="127.5" width="240" height="165" as="geometry" />
        </mxCell>
        <mxCell id="ck2dfJqPOFLvT_J_ps-i-207" value="1、对于已有 hudi 表要重新接入全量，需要先将原有接入从 cdc 里面移除，并且删除数据&lt;br&gt;&lt;br&gt;2、之后走新增接入逻辑" style="text;html=1;strokeColor=none;fillColor=none;align=left;verticalAlign=middle;whiteSpace=wrap;rounded=0;" parent="1" vertex="1">
          <mxGeometry x="750" y="626" width="230" height="71.5" as="geometry" />
        </mxCell>
      </root>
    </mxGraphModel>
  </diagram>
</mxfile>
